# xmcd
#
# Track frame offsets:
#	150
#	27470
#	56239
#	74754
#	95104
#	138296
#	160761
#	186911
#
# Disc length: 2748 seconds
#
# Revision: 1
# Processed by: cddbd v1.5.2PL0 Copyright (c) Steve Scherf et al.
# Submitted via: audiograbber 1.83.01
#
DISCID=790aba08
DTITLE=Cliff Morrison and the lizars sun band - Color of people
DYEAR=2008
DGENRE=Blues
TTITLE0=Park bench
TTITLE1=They will follow
TTITLE2=Liquid highway
TTITLE3=One man down
TTITLE4=Color of people
TTITLE5=Don't blame our god
TTITLE6=Halo
TTITLE7=Marillina
EXTD=
EXTT0=
EXTT1=
EXTT2=
EXTT3=
EXTT4=
EXTT5=
EXTT6=
EXTT7=
PLAYORDER=
